<?xml version="1.0" standalone="no"?>
<!DOCTYPE svg PUBLIC "-//W3C//DTD SVG 20010904//EN"
 "http://www.w3.org/TR/2001/REC-SVG-20010904/DTD/svg10.dtd">
<svg version="1.0" xmlns="http://www.w3.org/2000/svg"
 width="1150.000000pt" height="1050.000000pt" viewBox="0 0 1150.000000 1050.000000"
 preserveAspectRatio="xMidYMid meet">
<metadata>
Created by potrace 1.16, written by Peter Selinger 2001-2019
</metadata>
<g transform="translate(0.000000,1050.000000) scale(0.100000,-0.100000)"
fill="#000000" stroke="none">
<path d="M4815 9136 c-194 -31 -330 -101 -456 -232 -141 -147 -209 -291 -294
-621 -99 -381 -163 -532 -266 -628 -80 -73 -171 -137 -344 -240 -238 -141
-381 -275 -517 -480 -63 -96 -159 -281 -198 -381 l-24 -61 -46 27 c-65 38
-170 79 -238 92 -61 11 -222 5 -300 -12 -272 -60 -509 -284 -682 -644 -148
-310 -234 -593 -286 -951 -23 -150 -25 -514 -5 -655 41 -293 130 -593 222
-745 175 -292 506 -457 943 -471 l120 -3 72 -108 c282 -420 686 -661 1254
-750 177 -28 676 -25 895 5 190 25 392 62 568 102 l128 29 111 -35 c606 -190
1274 -331 1928 -409 264 -31 395 -32 509 -5 218 53 428 212 550 417 94 160
144 424 111 593 -4 25 -7 47 -4 49 2 2 92 8 201 12 273 12 383 25 488 60 224
74 419 251 520 473 55 119 69 193 68 351 0 110 -5 157 -22 220 -24 91 -75 203
-123 272 -18 27 -32 50 -31 52 1 3 40 12 86 22 327 66 657 386 749 728 31 115
29 294 -5 424 -28 104 -95 256 -147 332 -74 107 -198 208 -335 271 -118 54
-246 86 -482 120 l-31 5 23 42 c13 23 38 85 56 137 28 84 33 111 37 231 5 154
-8 237 -60 371 -98 256 -333 460 -617 536 -87 23 -117 25 -321 28 -160 2 -253
-2 -320 -12 -306 -48 -1235 -252 -2463 -543 -164 -39 -300 -71 -302 -71 -2 0
25 55 60 123 110 212 208 488 241 681 12 69 15 130 11 251 -6 183 -33 310
-105 493 -58 147 -113 235 -206 327 -87 87 -176 138 -291 170 -80 22 -323 29
-430 11z m287 -502 c100 -34 167 -127 220 -309 20 -69 23 -102 23 -235 -1
-151 -2 -158 -39 -275 -53 -169 -112 -303 -220 -503 -98 -181 -136 -269 -183
-418 l-28 -89 -1 -330 c-1 -360 -3 -377 -65 -571 -79 -249 -157 -384 -308
-534 -114 -113 -204 -180 -346 -255 -126 -67 -150 -87 -181 -151 -51 -104 -30
-220 53 -295 49 -45 101 -63 174 -63 46 1 72 9 160 54 344 174 618 425 762
698 58 111 146 336 186 475 58 205 66 262 64 489 l-2 207 107 25 c59 14 357
84 662 156 1326 313 2053 470 2319 501 163 18 340 -2 448 -53 103 -48 193
-172 213 -291 24 -148 -54 -313 -179 -376 -81 -42 -508 -178 -841 -269 -436
-119 -1052 -244 -1710 -347 -248 -39 -283 -50 -337 -107 -44 -46 -63 -97 -63
-170 1 -127 82 -224 206 -243 58 -9 711 95 1191 191 255 50 631 137 823 188
335 91 945 153 1240 127 242 -22 365 -67 463 -170 77 -81 102 -147 102 -276 0
-94 -2 -105 -34 -170 -69 -140 -239 -268 -391 -294 -302 -52 -1503 -133 -2910
-196 -423 -20 -451 -24 -515 -91 -133 -136 -73 -366 107 -414 37 -10 1233 5
2331 29 444 10 474 8 563 -44 57 -33 121 -107 152 -173 36 -78 38 -211 4 -286
-49 -109 -148 -193 -257 -220 -101 -25 -447 -40 -920 -40 -593 1 -1083 26
-1755 90 -146 14 -294 27 -330 31 -117 10 -203 -33 -254 -128 -68 -123 -16
-283 111 -340 94 -43 1177 -129 1847 -147 l260 -7 25 -50 c35 -68 36 -201 2
-287 -42 -107 -150 -201 -267 -234 -59 -16 -70 -16 -255 5 -580 65 -1247 201
-1774 362 -93 28 -212 65 -264 80 -51 16 -105 29 -118 29 -13 0 -68 -11 -121
-24 -350 -89 -617 -127 -924 -133 -260 -6 -359 2 -548 44 -512 113 -867 429
-1054 938 -20 55 -42 113 -48 129 -54 137 -263 183 -383 84 -73 -61 -106 -184
-74 -277 6 -18 9 -34 6 -37 -11 -11 -135 28 -215 67 -166 81 -244 193 -307
442 -53 208 -68 347 -62 567 9 335 90 669 237 977 114 239 224 358 374 404 84
27 112 20 217 -50 117 -79 109 -66 97 -154 -8 -58 -8 -86 2 -122 28 -99 109
-169 210 -181 70 -8 127 8 182 49 63 48 84 94 107 237 39 239 97 423 201 630
105 209 224 344 400 451 432 261 570 386 680 614 66 137 120 296 184 540 25
94 51 188 59 211 74 205 218 323 393 324 39 0 91 -7 116 -16z"/>
</g>
</svg>
