<?xml version="1.0" standalone="no"?>
<!DOCTYPE svg PUBLIC "-//W3C//DTD SVG 20010904//EN"
 "http://www.w3.org/TR/2001/REC-SVG-20010904/DTD/svg10.dtd">
<svg version="1.0" xmlns="http://www.w3.org/2000/svg"
 width="1150.000000pt" height="1050.000000pt" viewBox="0 0 1150.000000 1050.000000"
 preserveAspectRatio="xMidYMid meet">
<metadata>
Created by potrace 1.16, written by Peter Selinger 2001-2019
</metadata>
<g transform="translate(0.000000,1050.000000) scale(0.100000,-0.100000)"
fill="#000000" stroke="none">
<path d="M5340 9183 c-225 -23 -539 -144 -800 -308 -221 -140 -471 -336 -606
-477 -194 -201 -388 -504 -520 -810 l-37 -87 -36 19 c-20 10 -70 29 -111 41
-68 22 -92 24 -250 23 -146 -1 -188 -5 -255 -23 -399 -107 -701 -457 -948
-1101 -243 -633 -310 -1301 -191 -1912 30 -156 90 -369 142 -505 175 -457 532
-706 1114 -778 46 -6 47 -7 88 -81 101 -185 283 -428 399 -536 301 -279 734
-407 1250 -370 88 6 201 17 251 24 l90 12 127 -125 c320 -312 610 -472 958
-526 74 -11 141 -14 260 -9 461 16 759 144 981 420 119 148 185 314 199 504 7
88 9 92 31 92 40 0 195 37 295 71 403 135 759 429 916 756 60 126 93 259 100
408 5 106 -6 258 -23 321 -4 17 3 26 38 47 60 35 167 120 206 165 142 160 212
345 232 613 20 257 -21 429 -155 651 l-53 87 52 33 c239 151 511 414 668 645
66 99 141 258 169 358 27 102 37 339 19 453 -39 241 -177 472 -426 711 -379
364 -747 537 -1239 582 -293 26 -625 -16 -999 -127 l-148 -45 -127 123 c-156
152 -248 228 -407 334 -338 226 -710 338 -1103 332 -64 0 -132 -3 -151 -5z
m420 -638 c289 -59 565 -221 827 -483 244 -246 423 -521 479 -740 22 -85 25
-112 21 -217 -5 -135 -30 -227 -82 -304 -84 -126 -288 -139 -470 -30 -65 38
-545 497 -577 550 -61 103 -152 152 -279 151 -209 -2 -333 -185 -300 -444 7
-52 33 -155 61 -244 58 -178 62 -234 29 -360 -60 -232 -263 -526 -447 -648
-80 -52 -114 -67 -209 -90 -40 -10 -92 -31 -116 -47 -88 -58 -144 -173 -134
-278 10 -115 68 -200 169 -251 53 -26 72 -30 143 -30 229 0 495 135 710 361
l70 74 1 -125 c1 -136 20 -256 60 -382 14 -44 24 -81 22 -82 -2 -2 -37 -26
-78 -53 -234 -157 -349 -390 -350 -710 l0 -113 -27 -6 c-188 -41 -320 -120
-445 -267 -111 -131 -179 -269 -214 -437 -19 -91 -26 -359 -11 -414 l8 -29
-193 6 c-164 4 -208 9 -291 30 -255 67 -426 185 -560 384 -141 210 -200 361
-200 513 -1 80 4 106 26 163 65 164 4 333 -148 407 -40 19 -66 24 -130 24
-142 0 -222 -56 -304 -213 -41 -79 -81 -204 -81 -254 0 -15 -7 -30 -15 -33 -8
-3 -59 15 -112 41 -82 40 -111 61 -178 129 -96 97 -134 164 -180 321 -144 489
-150 924 -19 1447 89 361 232 690 380 876 72 92 140 147 239 194 58 27 82 33
141 33 62 0 77 -4 120 -31 28 -18 47 -37 45 -45 -2 -8 -28 -111 -59 -229 -84
-327 -79 -407 29 -525 130 -141 390 -108 481 62 15 28 49 142 82 274 171 695
406 1197 708 1515 176 185 500 406 733 500 225 91 394 107 625 59z m2596 -624
c472 -91 910 -443 974 -781 14 -74 -12 -172 -77 -290 -48 -88 -93 -143 -236
-288 -198 -202 -396 -317 -663 -386 -345 -88 -619 -96 -941 -26 -176 38 -177
39 -115 79 28 17 86 69 129 115 121 126 191 254 238 441 13 49 27 91 32 92 5
2 72 -25 149 -59 135 -60 142 -62 224 -62 98 -1 152 20 216 82 91 88 117 240
61 354 -35 71 -95 125 -178 160 -35 15 -113 48 -174 74 -147 62 -272 104 -309
104 -30 0 -32 4 -59 79 -15 44 -47 119 -71 169 l-44 89 117 26 c101 23 172 35
311 51 77 9 319 -4 416 -23z m-1493 -2235 c62 -30 150 -68 197 -84 93 -33 358
-85 512 -102 199 -21 497 -10 698 26 167 30 148 33 205 -40 114 -148 162 -272
152 -392 -8 -91 -36 -173 -79 -228 -70 -92 -363 -261 -545 -315 -343 -103
-812 -48 -1175 137 -292 149 -457 311 -525 515 -23 69 -27 100 -27 197 -1 109
0 118 29 169 47 84 119 127 265 156 130 26 168 21 293 -39z m-668 -1331 c147
-113 388 -244 585 -320 134 -52 373 -111 520 -129 287 -35 497 -29 737 19 69
14 128 23 131 20 11 -11 -21 -123 -56 -195 -28 -58 -57 -96 -127 -166 -153
-155 -330 -249 -567 -300 -112 -25 -375 -25 -505 0 -378 69 -718 261 -872 491
-167 251 -153 551 29 624 41 16 50 13 125 -44z m-703 -929 c20 -9 53 -38 77
-69 88 -115 266 -271 421 -368 210 -133 490 -247 725 -294 50 -10 96 -23 104
-29 19 -15 8 -93 -23 -153 -75 -147 -263 -231 -536 -240 -120 -4 -146 -2 -232
21 -53 13 -136 44 -184 67 -231 113 -476 346 -577 548 l-42 85 0 115 c0 106 2
121 28 176 60 128 147 179 239 141z"/>
</g>
</svg>
