<?xml version="1.0" standalone="no"?>
<!DOCTYPE svg PUBLIC "-//W3C//DTD SVG 20010904//EN"
 "http://www.w3.org/TR/2001/REC-SVG-20010904/DTD/svg10.dtd">
<svg version="1.0" xmlns="http://www.w3.org/2000/svg"
 width="1150.000000pt" height="1050.000000pt" viewBox="0 0 1150.000000 1050.000000"
 preserveAspectRatio="xMidYMid meet">
<metadata>
Created by potrace 1.16, written by Peter Selinger 2001-2019
</metadata>
<g transform="translate(0.000000,1050.000000) scale(0.100000,-0.100000)"
fill="#000000" stroke="none">
<path d="M4334 8746 c-303 -58 -604 -214 -954 -497 -233 -188 -397 -402 -561
-734 -43 -88 -79 -166 -79 -174 0 -9 -6 -11 -17 -6 -133 56 -153 60 -318 60
-136 0 -172 -4 -238 -23 -279 -80 -495 -291 -681 -667 -211 -424 -328 -918
-328 -1380 -1 -289 39 -539 129 -818 75 -236 148 -362 284 -493 125 -119 275
-199 468 -250 110 -28 294 -54 390 -54 l69 0 58 -77 c193 -258 461 -445 742
-519 155 -40 299 -49 460 -28 99 13 137 15 139 7 10 -28 121 -185 185 -261
327 -385 702 -556 1127 -513 314 32 551 141 762 351 144 142 213 280 226 450
l6 79 56 6 c154 16 236 30 337 55 278 72 521 206 710 394 114 114 178 213 221
341 25 74 27 92 27 255 1 139 -3 188 -17 239 -10 35 -17 64 -15 66 2 1 87 -13
189 -31 388 -69 957 -145 1349 -180 270 -24 659 -25 770 0 241 52 423 161 559
334 171 217 242 402 242 630 0 179 -36 326 -131 527 -78 165 -151 248 -310
351 -214 139 -616 248 -1032 280 l-88 7 84 28 c354 119 605 257 771 423 80 81
97 105 157 221 175 342 204 599 93 818 -159 313 -405 484 -803 559 -174 33
-499 33 -662 0 -557 -111 -1728 -513 -2337 -802 -70 -33 -130 -57 -133 -53 -4
5 -37 55 -75 113 -128 194 -336 422 -525 576 -235 192 -523 330 -785 379 -121
23 -425 29 -521 11z m407 -532 c244 -46 469 -171 690 -382 232 -222 399 -474
445 -668 23 -101 16 -278 -16 -359 -30 -77 -89 -139 -150 -155 -86 -23 -215 6
-316 72 -51 34 -430 408 -498 492 -52 63 -109 89 -196 89 -190 -2 -295 -158
-261 -391 7 -48 30 -141 52 -207 27 -80 41 -137 40 -171 -2 -273 -285 -669
-529 -740 -145 -42 -189 -71 -234 -157 -30 -55 -32 -174 -4 -229 23 -47 78
-102 126 -125 133 -65 398 13 603 178 210 169 434 494 512 739 15 47 30 93 33
102 6 14 18 9 81 -32 81 -54 184 -100 283 -128 48 -13 102 -17 228 -17 145 0
174 3 240 23 210 66 376 215 466 419 55 122 76 234 80 418 l4 170 132 63 c593
283 1707 673 2221 777 269 54 610 17 767 -83 56 -36 127 -112 146 -157 43
-104 -24 -329 -132 -445 -171 -183 -514 -321 -1179 -475 -715 -165 -1841 -472
-1966 -536 -53 -27 -107 -95 -126 -158 -28 -99 -1 -194 76 -264 84 -76 127
-80 411 -43 667 89 1195 127 1740 127 447 0 710 -20 965 -73 295 -61 503 -176
564 -313 101 -224 75 -415 -78 -577 -73 -78 -153 -123 -246 -138 -366 -60
-1800 125 -2795 361 -299 71 -326 76 -401 84 -176 18 -303 -91 -303 -260 0
-59 5 -79 29 -124 48 -87 107 -122 239 -140 299 -42 595 -349 546 -567 -14
-59 -50 -129 -93 -180 -114 -132 -354 -249 -591 -290 -137 -23 -427 -15 -571
16 -326 70 -613 224 -724 390 -82 124 -106 252 -60 326 28 45 97 79 204 99
128 25 200 20 322 -21 182 -60 390 -152 491 -215 42 -27 137 -36 197 -19 63
18 136 85 165 152 45 104 12 235 -77 306 -128 101 -617 299 -822 332 -129 21
-383 -5 -527 -54 -303 -103 -473 -306 -500 -597 l-7 -65 -85 -16 c-105 -20
-225 -78 -300 -144 -149 -131 -253 -339 -269 -536 l-6 -78 -36 -7 c-20 -5 -85
-8 -146 -7 -92 0 -123 5 -190 28 -127 43 -218 100 -321 201 -169 167 -250 324
-270 530 -13 131 -56 204 -146 249 -95 47 -215 32 -293 -36 -68 -60 -85 -105
-85 -226 l0 -101 -32 6 c-65 12 -188 62 -242 98 -72 47 -143 126 -183 202 -41
77 -95 261 -124 428 -27 157 -33 471 -11 620 59 390 182 760 331 992 126 196
318 308 444 259 86 -34 85 -18 27 -248 -56 -218 -63 -297 -37 -360 54 -128
188 -192 319 -154 66 19 137 78 161 133 9 21 33 106 53 188 166 692 417 1183
736 1439 251 203 529 346 728 374 76 11 175 7 281 -14z m-201 -4359 c14 -8 34
-15 45 -15 12 -1 39 -24 65 -57 163 -204 539 -417 904 -512 111 -29 135 -67
96 -151 -56 -120 -242 -239 -424 -271 -102 -17 -245 -7 -334 24 -101 35 -213
108 -310 201 -105 101 -172 189 -222 291 -63 130 -74 227 -41 334 30 96 73
144 146 162 43 10 47 10 75 -6z"/>
</g>
</svg>
