<?xml version="1.0" standalone="no"?>
<!DOCTYPE svg PUBLIC "-//W3C//DTD SVG 20010904//EN"
 "http://www.w3.org/TR/2001/REC-SVG-20010904/DTD/svg10.dtd">
<svg version="1.0" xmlns="http://www.w3.org/2000/svg"
 width="1169.000000pt" height="1280.000000pt" viewBox="0 0 1169.000000 1280.000000"
 preserveAspectRatio="xMidYMid meet">
<metadata>
Created by potrace 1.16, written by Peter Selinger 2001-2019
</metadata>
<g transform="translate(0.000000,1280.000000) scale(0.100000,-0.100000)"
fill="#000000" stroke="none">
<path d="M6625 10750 c-16 -6 -88 -53 -160 -106 -543 -402 -1147 -692 -1644
-789 -69 -14 -136 -27 -148 -30 -94 -22 -199 -259 -223 -505 -14 -138 -2 -250
38 -352 34 -88 62 -134 135 -220 l55 -65 -540 -6 c-298 -4 -947 -7 -1444 -7
l-902 0 -90 -29 c-284 -93 -486 -278 -591 -542 -42 -105 -54 -198 -49 -369 6
-157 24 -234 88 -360 l30 -60 -22 0 c-69 0 -272 -23 -328 -37 -36 -8 -103 -33
-148 -54 -288 -133 -482 -403 -513 -714 -19 -187 11 -350 94 -510 91 -175 229
-307 416 -397 58 -28 107 -52 109 -53 1 -1 -18 -40 -42 -86 -112 -210 -133
-474 -56 -712 42 -131 89 -205 215 -335 106 -110 114 -116 230 -172 173 -84
210 -90 595 -100 179 -5 328 -9 332 -9 4 -1 -11 -38 -32 -83 -57 -123 -71
-185 -77 -344 -6 -167 9 -265 62 -387 54 -125 94 -185 190 -282 123 -122 248
-194 426 -242 60 -16 277 -17 3394 -21 2271 -2 3381 0 3490 8 549 36 1063 296
1412 713 219 262 363 559 448 921 l26 109 -4 1876 c-4 2083 2 1903 -72 2126
-103 309 -282 573 -566 838 -637 591 -1798 1049 -3289 1296 -468 78 -781 111
-845 91z m385 -416 c1180 -154 2290 -487 2972 -891 246 -145 378 -244 552
-413 272 -265 408 -506 468 -830 22 -114 22 -124 22 -1790 1 -1325 -2 -1695
-12 -1770 -58 -419 -226 -752 -518 -1029 -258 -244 -598 -400 -964 -441 -115
-13 -6624 -14 -6748 -1 -216 23 -393 189 -438 415 -14 65 -14 91 -5 150 23
143 123 291 247 366 l58 35 1841 5 c1690 5 1842 6 1870 22 69 38 105 97 105
174 0 61 -19 102 -69 146 l-41 38 -1328 1 c-730 1 -1840 5 -2467 8 l-1140 6
-80 39 c-204 99 -332 329 -298 532 24 140 123 287 247 366 l51 33 570 6 c313
4 1399 7 2412 8 l1842 1 35 30 c44 39 76 105 76 155 0 50 -32 116 -76 155
l-35 30 -1652 1 c-909 1 -2082 4 -2607 8 l-955 6 -88 42 c-227 109 -349 347
-292 566 35 136 144 277 261 339 122 65 -81 60 2611 65 l2443 5 44 39 c53 47
70 91 64 170 -5 65 -21 94 -79 140 l-34 28 -1900 7 c-1045 3 -1981 9 -2080 13
l-181 7 -46 32 c-109 75 -196 214 -219 349 -42 243 152 516 401 564 37 7 957
12 2851 16 l2796 5 6 -81 c4 -45 20 -150 37 -233 83 -402 222 -720 431 -984
124 -157 361 -350 514 -420 121 -56 226 -37 283 49 22 34 27 52 27 107 0 85
-31 137 -107 178 -272 145 -452 339 -598 645 -112 235 -164 426 -206 761 -31
255 -115 574 -182 699 -47 88 -174 168 -328 207 -89 23 -298 27 -462 9 -247
-26 -633 -150 -1024 -327 l-193 -87 -130 1 c-347 2 -632 117 -708 284 -27 59
-28 177 -3 283 l19 77 41 10 c178 46 353 96 453 131 421 148 865 386 1297 697
77 56 104 70 125 66 14 -2 114 -16 221 -30z m300 -1503 c47 -17 73 -52 86
-119 l7 -32 -514 1 c-363 0 -507 3 -489 11 62 25 344 108 435 127 199 43 380
47 475 12z"/>
</g>
</svg>
