<?xml version="1.0" standalone="no"?>
<!DOCTYPE svg PUBLIC "-//W3C//DTD SVG 20010904//EN"
 "http://www.w3.org/TR/2001/REC-SVG-20010904/DTD/svg10.dtd">
<svg version="1.0" xmlns="http://www.w3.org/2000/svg"
 width="1050.000000pt" height="1150.000000pt" viewBox="0 0 1050.000000 1150.000000"
 preserveAspectRatio="xMidYMid meet">
<metadata>
Created by potrace 1.16, written by Peter Selinger 2001-2019
</metadata>
<g transform="translate(0.000000,1150.000000) scale(0.100000,-0.100000)"
fill="#000000" stroke="none">
<path d="M5389 9437 c-19 -13 -103 -73 -187 -134 -456 -327 -988 -573 -1412
-653 -63 -12 -127 -28 -143 -36 -41 -22 -80 -89 -121 -213 -54 -164 -69 -313
-45 -447 15 -84 78 -207 148 -291 l61 -71 -263 -4 -262 -3 -78 -34 c-328 -141
-523 -445 -504 -786 7 -122 27 -204 77 -311 l37 -81 -75 -7 c-41 -3 -103 -6
-136 -6 -163 0 -353 -94 -493 -244 -79 -84 -134 -177 -175 -296 -30 -90 -32
-103 -32 -240 0 -169 12 -225 79 -367 36 -77 58 -108 135 -187 101 -104 180
-161 282 -201 l67 -27 -35 -62 c-77 -140 -111 -294 -100 -452 8 -120 27 -191
81 -299 98 -199 257 -336 477 -411 39 -13 82 -24 95 -24 l23 0 -34 -68 c-61
-121 -78 -192 -83 -348 -5 -120 -2 -152 16 -225 42 -167 141 -321 278 -430 79
-63 209 -131 283 -149 92 -21 780 -30 2740 -32 l2015 -3 118 23 c168 32 366
100 515 177 429 222 749 600 903 1066 79 242 74 114 74 1779 0 1329 -2 1506
-17 1681 -28 311 -55 422 -153 626 -93 194 -182 318 -361 497 -402 403 -977
710 -1793 955 -605 182 -1535 361 -1877 361 -79 0 -96 -3 -125 -23z m388 -352
c504 -68 1070 -189 1501 -320 957 -291 1608 -694 1895 -1171 92 -154 138 -289
162 -474 42 -331 45 -456 45 -1773 0 -853 -4 -1300 -11 -1369 -20 -185 -89
-412 -172 -558 -220 -393 -557 -643 -1012 -751 -86 -21 -124 -22 -800 -29
-390 -4 -1019 -8 -1397 -9 l-687 -1 34 58 c80 134 122 311 111 472 -7 119 -26
191 -80 306 l-43 91 51 13 c152 39 340 180 436 327 178 272 174 635 -10 903
-28 39 -50 75 -49 78 0 4 35 34 77 67 135 107 244 279 276 437 20 96 20 281 1
370 -30 144 -95 264 -200 373 -101 105 -201 165 -378 228 -16 6 -15 12 13 66
16 33 42 95 57 138 26 73 28 89 28 243 0 154 -2 170 -28 243 -15 43 -40 104
-56 136 l-30 58 232 6 c305 9 457 9 457 0 0 -5 9 -66 20 -138 36 -233 104
-461 196 -655 129 -272 374 -533 612 -652 68 -34 92 -41 140 -41 71 0 112 21
142 75 18 33 22 51 18 108 -5 86 -14 97 -156 182 -192 115 -341 286 -451 519
-89 187 -127 337 -162 634 -27 235 -113 552 -176 646 -44 67 -170 141 -282
165 -87 18 -329 18 -453 -1 -241 -36 -520 -126 -867 -279 -91 -41 -177 -77
-190 -81 -40 -12 -199 -6 -301 11 -301 51 -454 159 -467 328 -7 86 20 211 50
231 12 7 69 26 127 40 312 79 668 225 975 400 116 66 307 189 488 314 48 34
97 61 107 61 11 0 104 -11 207 -25z m290 -1358 c25 -13 36 -29 48 -69 8 -28
15 -53 15 -55 0 -2 -206 -3 -457 -2 l-458 0 70 25 c109 39 302 94 385 109 109
20 354 16 397 -8z m-1048 -517 c91 -45 174 -129 217 -216 33 -66 38 -84 42
-172 5 -118 -13 -179 -82 -276 -48 -67 -90 -105 -167 -149 l-46 -27 -879 0
-880 0 -76 50 c-243 160 -288 467 -99 681 45 51 121 104 179 125 30 10 208 13
885 14 l848 0 58 -30z m410 -1215 c139 -37 247 -123 304 -242 30 -65 32 -74
32 -188 0 -115 -1 -122 -31 -180 -42 -79 -106 -150 -176 -196 -108 -69 -86
-68 -1038 -73 -470 -2 -1123 -1 -1451 2 l-595 7 -78 38 c-207 103 -310 324
-246 531 39 124 132 231 255 291 l50 24 1460 1 c1234 0 1468 -2 1514 -15z
m-196 -1216 c181 -34 343 -217 355 -403 2 -42 -1 -97 -8 -127 -31 -133 -133
-260 -257 -321 l-68 -33 -640 -6 c-352 -4 -881 -4 -1176 -1 l-535 7 -78 38
c-140 70 -233 193 -259 341 -32 187 74 381 259 473 l78 38 415 6 c533 8 1851
0 1914 -12z m-410 -1256 c80 -38 175 -124 217 -198 60 -105 75 -226 40 -338
-39 -127 -137 -238 -260 -296 -55 -26 -55 -26 -424 -33 -203 -4 -498 -4 -655
0 l-286 7 -68 32 c-122 58 -222 177 -257 305 -7 29 -11 83 -8 137 3 75 9 99
38 157 59 122 192 230 310 253 25 5 324 8 665 8 l620 -2 68 -32z"/>
</g>
</svg>
