<?xml version="1.0" standalone="no"?>
<!DOCTYPE svg PUBLIC "-//W3C//DTD SVG 20010904//EN"
 "http://www.w3.org/TR/2001/REC-SVG-20010904/DTD/svg10.dtd">
<svg version="1.0" xmlns="http://www.w3.org/2000/svg"
 width="1050.000000pt" height="1150.000000pt" viewBox="0 0 1050.000000 1150.000000"
 preserveAspectRatio="xMidYMid meet">
<metadata>
Created by potrace 1.16, written by Peter Selinger 2001-2019
</metadata>
<g transform="translate(0.000000,1150.000000) scale(0.100000,-0.100000)"
fill="#000000" stroke="none">
<path d="M5925 9323 c-16 -9 -78 -52 -138 -95 -327 -239 -647 -418 -986 -552
-155 -62 -293 -103 -491 -146 -74 -17 -146 -38 -160 -48 -33 -25 -71 -104
-116 -239 -20 -62 -38 -113 -41 -113 -8 0 -679 161 -1738 417 l-1100 265 -135
-5 c-110 -4 -150 -10 -215 -32 -151 -50 -284 -138 -376 -249 -60 -73 -141
-235 -163 -327 -21 -84 -21 -289 -1 -384 40 -190 190 -393 366 -498 104 -61
121 -66 2449 -703 1373 -375 1308 -356 1279 -366 -28 -9 -297 -50 -2669 -408
-934 -141 -1109 -170 -1177 -195 -111 -42 -203 -103 -295 -195 -74 -75 -93
-101 -136 -191 -64 -132 -82 -214 -82 -371 0 -156 18 -239 74 -353 99 -200
265 -342 491 -417 61 -20 89 -23 210 -22 165 1 133 -3 1505 174 1309 168 1205
156 1197 137 -36 -95 -49 -163 -54 -283 -7 -154 5 -238 49 -343 75 -180 211
-326 381 -410 100 -50 201 -81 264 -81 17 0 43 -4 58 -10 25 -9 25 -10 11 -45
-45 -106 -60 -342 -32 -477 48 -225 234 -452 450 -548 154 -68 107 -65 976
-63 1162 3 2878 22 3015 34 437 36 830 226 1145 556 58 60 135 152 172 204
145 202 267 494 308 737 20 114 20 160 18 1792 l-3 1675 -38 120 c-142 448
-402 776 -862 1085 -671 451 -1791 809 -3018 965 -231 29 -348 32 -392 8z
m425 -368 c1222 -176 2163 -481 2797 -906 269 -181 511 -437 623 -658 38 -77
75 -183 105 -302 l26 -101 -4 -1582 c-4 -1758 1 -1635 -72 -1854 -75 -223
-204 -431 -370 -597 -200 -200 -415 -321 -704 -397 -114 -29 -122 -30 -401
-34 -157 -2 -621 -6 -1032 -8 l-748 -3 49 61 c70 88 108 154 141 244 90 248
49 543 -106 750 l-42 57 66 35 c212 112 344 268 414 490 20 65 23 95 23 230 0
178 -13 237 -75 365 -130 264 -403 435 -697 435 -82 0 -588 -62 -1173 -145
-96 -13 -440 -61 -765 -105 -324 -44 -932 -128 -1350 -186 -1103 -152 -1894
-259 -2105 -285 -154 -19 -194 -20 -240 -11 -180 38 -332 196 -362 377 -13 76
7 190 48 273 50 101 173 200 289 231 50 13 281 48 2000 306 2339 351 2490 375
2536 402 47 28 69 81 69 167 0 136 -29 172 -176 215 -141 43 -790 222 -1829
506 -1817 497 -2389 657 -2450 684 -96 44 -189 160 -220 275 -13 47 -16 89
-13 153 7 147 74 262 203 345 82 54 180 82 259 75 33 -2 329 -69 656 -147 813
-193 2062 -494 2190 -528 l105 -27 40 -75 c86 -161 243 -284 452 -353 158 -53
262 -69 477 -74 217 -6 213 -7 400 79 l131 60 90 -22 c220 -53 374 -85 730
-151 209 -39 381 -72 382 -73 2 -2 10 -52 18 -112 51 -389 176 -720 372 -980
149 -200 434 -409 573 -421 105 -10 187 77 176 185 -2 30 -12 65 -21 78 -17
26 -27 34 -185 136 -171 112 -307 269 -402 468 -89 187 -157 453 -178 695 -6
72 -18 159 -26 195 -24 104 -82 294 -107 352 -44 100 -172 188 -323 224 -101
23 -402 15 -534 -15 -236 -54 -486 -140 -779 -268 l-194 -84 -87 0 c-304 0
-577 102 -653 245 -18 34 -21 57 -21 131 0 54 7 113 17 146 l17 56 107 27
c272 70 553 176 814 307 216 108 401 221 692 424 43 30 86 55 95 55 9 0 127
-16 262 -35z m232 -1350 c24 -11 41 -29 48 -48 5 -17 9 -32 7 -33 -6 -6 -457
80 -457 87 0 12 71 17 225 15 115 -2 147 -5 177 -21z m-79 -2812 c175 -83 274
-248 265 -443 -5 -115 -44 -198 -133 -286 -83 -82 -143 -109 -290 -133 -306
-51 -1527 -224 -1946 -276 -225 -28 -275 -25 -374 24 -252 124 -334 423 -179
656 82 125 175 174 389 209 121 20 1052 153 1860 265 81 12 182 19 240 18 89
-2 107 -6 168 -34z m-308 -1293 c133 -64 230 -191 257 -340 23 -124 -27 -274
-127 -379 -108 -113 -126 -118 -775 -211 -663 -95 -673 -95 -798 -35 -166 79
-262 230 -262 410 0 180 95 327 263 405 78 37 215 60 1047 174 58 8 155 14
215 12 102 -2 115 -4 180 -36z"/>
</g>
</svg>
